<svg width="32" height="32" viewBox="0 0 32 32" fill="none" xmlns="http://www.w3.org/2000/svg">
<path fill-rule="evenodd" clip-rule="evenodd" d="M8.03344 9.39755C5.62007 13.0151 6.09819 17.8896 9.16573 20.9415L12.5665 23.6188L15.5995 26.6668L18.6324 23.6188L22.0332 20.9415C25.1007 17.8896 25.5788 13.0151 23.1655 9.39755C22.1573 7.88699 20.7369 6.71533 19.0821 6.02955C16.8485 5.10148 14.3504 5.10148 12.1167 6.02955C10.462 6.71533 9.04148 7.88699 8.03344 9.39755Z" stroke="#3ABBB9" stroke-width="2" stroke-linecap="round" stroke-linejoin="round"/>
<path fill-rule="evenodd" clip-rule="evenodd" d="M15.5995 17.5241C17.2324 17.4896 18.5321 16.1101 18.5099 14.4352C18.4876 12.7602 17.1516 11.4175 15.5184 11.4288C13.8852 11.44 12.5669 12.8009 12.5666 14.4761C12.5837 16.1767 13.9415 17.5411 15.5995 17.5241Z" stroke="#3ABBB9" stroke-width="2" stroke-linecap="round" stroke-linejoin="round"/>
</svg>
