<svg width="32" height="32" viewBox="0 0 32 32" fill="none" xmlns="http://www.w3.org/2000/svg">
<path d="M13.3835 7.08839L14.2488 8.63896C15.0297 10.0382 14.7163 11.8739 13.4863 13.1039C13.4863 13.1039 11.9945 14.5959 14.6993 17.3008C17.4033 20.0048 18.8963 18.5139 18.8963 18.5139C20.1263 17.2839 21.9619 16.9704 23.3612 17.7513L24.9117 18.6167C27.0248 19.7959 27.2743 22.7591 25.4171 24.6164C24.3011 25.7324 22.9339 26.6008 21.4225 26.658C18.8784 26.7545 14.5577 26.1107 10.2236 21.7765C5.88952 17.4424 5.24563 13.1217 5.34208 10.5776C5.39937 9.06629 6.26775 7.69913 7.38376 6.58313C9.24103 4.72587 12.2042 4.97541 13.3835 7.08839Z" stroke="#555555" stroke-width="2" stroke-linecap="round"/>
</svg>
